g Body_01
v 0 1.41 0.97
v 0 1.41 0.07
v 0 0.09 0.07
v 0 0.09 0.97
v 0.09 0 0.07
v 0.09 0 0.97
v 0.045 0.045 0.00573334
v 1.41 0 0.07
v 1.41 0 0.97
v 0.045 1.455 0.00573334
v 0.0700208 1.42998 -0.03
v 0.0700208 0.0700208 -0.03
v 1.455 0.045 0.00573334
v 1.42998 0.0700208 -0.03
v 1.42998 1.42998 -0.03
v 1.5 0.09 0.07
v 1.5 0.09 0.97
v 1.455 1.455 0.00573334
v 1.5 1.41 0.07
v 1.5 1.41 0.97
v 0.09 1.5 0.07
v 1.41 1.5 0.07
v 1.41 1.5 0.97
v 0.09 1.5 0.97
v 0.09 0.127279 0.97
v 0.09 1.37272 0.97
v 0.127279 0.09 0.97
v 1.37272 0.09 0.97
v 1.41 0.127279 0.97
v 0.127279 1.41 0.97
v 1.37272 1.41 0.97
v 1.41 1.37272 0.97
v 0.127279 1.41 0.37
v 0.09 1.37272 0.37
v 1.37272 0.09 0.37
v 1.41 0.127279 0.37
v 0.09 0.127279 0.37
v 1.41 1.37272 0.37
v 1.37272 1.41 0.37
v 0.127279 0.09 0.37
vn -1 -0 0
vn -0.707107 -0.707107 -0
vn -0 -1 -0
vn -0.819152 0 -0.573576
vn 0 -0.819152 -0.573576
vn -0 -0 -1
vn 0.707107 -0.707107 -0
vn 0.819152 -0 -0.573576
vn 1 -0 -0
vn 0 0.819152 -0.573576
vn 0.707107 0.707107 0
vn -0.707107 0.707107 -0
vn -0 1 -0
vn 0 0 1
vn 0.707107 -0.707107 0
vn 1 -0 -0
vn 0.707107 0.707107 -0
vn -0 1 -0
vn -0.707107 0.707107 0
vn -1 -0 -0
vn -0.707107 -0.707107 0
vn -0 -1 0
vt 0 0.66
vt 0.9 0.66
vt 0.9 -0.66
vt -0 -0.66
vt 0 0.127279
vt 0.9 0.127279
vt 0.9 0
vt 0 0
vt 0.964267 0.0636396
vt -0.9 0.66
vt 0 0.66
vt 0 -0.66
vt -0.9 -0.66
vt -0.0784551 -0.705
vt 0 -0.66
vt 0 0.66
vt -0.0784551 0.705
vt -0.122077 0.679979
vt -0.122077 -0.679979
vt 0.0784551 0.705
vt 0 0.66
vt 0 -0.66
vt 0.0784551 -0.705
vt 0.122077 -0.679979
vt 0.122077 0.679979
vt 1.42998 0.0700208
vt 0.0700208 0.0700208
vt 0.0700208 1.42998
vt 1.42998 1.42998
vt -0 0.127279
vt 0.9 0.127279
vt 0.9 0
vt 0 -0
vt 0.964267 0.0636396
vt 0.0784551 -0.705
vt 0.0784551 0.705
vt 0 0.66
vt 0.122077 -0.679979
vt 0.122077 0.679979
vt -0 -0.66
vt -0.9 0.66
vt 0 0.66
vt 0 -0.66
vt -0.9 -0.66
vt -0.0784551 0.705
vt -0.0784551 -0.705
vt 0 -0.66
vt -0.122077 0.679979
vt -0.122077 -0.679979
vt 0 0.66
vt 0 0.127279
vt 0.9 0.127279
vt 0.9 0
vt 0 0
vt 0.964267 0.0636396
vt 0 0.127279
vt 0.9 0.127279
vt 0.9 0
vt 0 0
vt 0.964267 0.0636396
vt 0.9 -0.66
vt -0 -0.66
vt 0 0.66
vt 0.9 0.66
vt 0 0.09
vt 0.09 0.127279
vt 0.09 1.37272
vt 0.09 0
vt 0.127279 0.09
vt 1.41 0
vt 1.37272 0.09
vt 1.5 0.09
vt 1.41 0.127279
vt 1.41 1.5
vt 0.09 1.5
vt 0.127279 1.41
vt 0 1.41
vt 1.5 1.41
vt 1.37272 1.41
vt 1.41 1.37272
vt 0.0263604 0
vt 0.0263604 0.6
vt -0.0263604 0.6
vt -0.0263604 0
vt 1.37272 0.09
vt 0.127279 1.41
vt 0.09 1.37272
vt 1.41 0.127279
vt 0.09 0.127279
vt 1.41 1.37272
vt 1.37272 1.41
vt 0.127279 0.09
vt 0 0.622721
vt 0.6 0.622721
vt 0.6 -0.622721
vt 0 -0.622721
vt 0.0263604 0
vt 0.0263604 0.6
vt -0.0263604 0.6
vt -0.0263604 0
vt -0 -0.622721
vt -0.6 -0.622721
vt -0.6 0.622721
vt 0 0.622721
vt 0.0263604 0
vt 0.0263604 0.6
vt -0.0263604 0.6
vt -0.0263604 0
vt 0 -0.622721
vt -0.6 -0.622721
vt -0.6 0.622721
vt 0 0.622721
vt 0.0263604 0
vt 0.0263604 0.6
vt -0.0263604 0.6
vt -0.0263604 0
vt 0 0.622721
vt 0.6 0.622721
vt 0.6 -0.622721
vt 0 -0.622721
f 1/1/1 2/2/1 3/3/1
f 3/3/1 4/4/1 1/1/1
f 4/5/2 3/6/2 5/7/2
f 5/7/2 6/8/2 4/5/2
f 3/6/2 7/9/2 5/7/2
f 8/10/3 9/11/3 6/12/3
f 6/12/3 5/13/3 8/10/3
f 7/14/4 3/15/4 2/16/4
f 10/17/4 11/18/4 12/19/4
f 12/19/4 7/14/4 10/17/4
f 2/16/4 10/17/4 7/14/4
f 13/20/5 8/21/5 5/22/5
f 13/20/5 7/23/5 12/24/5
f 12/24/5 14/25/5 13/20/5
f 5/22/5 7/23/5 13/20/5
f 14/26/6 12/27/6 11/28/6
f 11/28/6 15/29/6 14/26/6
f 9/30/7 8/31/7 16/32/7
f 16/32/7 17/33/7 9/30/7
f 8/31/7 13/34/7 16/32/7
f 13/35/8 18/36/8 19/37/8
f 18/36/8 13/35/8 14/38/8
f 14/38/8 15/39/8 18/36/8
f 19/37/8 16/40/8 13/35/8
f 19/41/9 20/42/9 17/43/9
f 17/43/9 16/44/9 19/41/9
f 18/45/10 10/46/10 21/47/10
f 10/46/10 18/45/10 15/48/10
f 15/48/10 11/49/10 10/46/10
f 21/47/10 22/50/10 18/45/10
f 20/51/11 19/52/11 22/53/11
f 22/53/11 23/54/11 20/51/11
f 19/52/11 18/55/11 22/53/11
f 24/56/12 21/57/12 2/58/12
f 2/58/12 1/59/12 24/56/12
f 21/57/12 10/60/12 2/58/12
f 21/61/13 24/62/13 23/63/13
f 23/63/13 22/64/13 21/61/13
f 4/65/14 25/66/14 26/67/14
f 4/65/14 6/68/14 27/69/14
f 6/68/14 9/70/14 28/71/14
f 9/70/14 17/72/14 29/73/14
f 23/74/14 24/75/14 30/76/14
f 24/75/14 1/77/14 26/67/14
f 27/69/14 25/66/14 4/65/14
f 29/73/14 28/71/14 9/70/14
f 20/78/14 23/74/14 31/79/14
f 26/67/14 30/76/14 24/75/14
f 28/71/14 27/69/14 6/68/14
f 20/78/14 32/80/14 29/73/14
f 30/76/14 31/79/14 23/74/14
f 29/73/14 17/72/14 20/78/14
f 26/67/14 1/77/14 4/65/14
f 31/79/14 32/80/14 20/78/14
f 33/81/15 30/82/15 26/83/15
f 26/83/15 34/84/15 33/81/15
f 35/85/14 33/86/14 34/87/14
f 33/86/14 35/85/14 36/88/14
f 34/87/14 37/89/14 35/85/14
f 36/88/14 38/90/14 33/86/14
f 38/90/14 39/91/14 33/86/14
f 37/89/14 40/92/14 35/85/14
f 34/93/16 26/94/16 25/95/16
f 25/95/16 37/96/16 34/93/16
f 37/97/17 25/98/17 27/99/17
f 27/99/17 40/100/17 37/97/17
f 40/101/18 27/102/18 28/103/18
f 28/103/18 35/104/18 40/101/18
f 35/105/19 28/106/19 29/107/19
f 29/107/19 36/108/19 35/105/19
f 36/109/20 29/110/20 32/111/20
f 32/111/20 38/112/20 36/109/20
f 38/113/21 32/114/21 31/115/21
f 31/115/21 39/116/21 38/113/21
f 39/117/22 31/118/22 30/119/22
f 30/119/22 33/120/22 39/117/22
g Body_02
v 1.41657 -0.05 1.2
v 1.41657 -0.05 0.9
v 1.55 0.0834315 0.9
v 1.55 0.0834315 1.2
v 1.55 1.41657 0.9
v 1.55 1.41657 1.2
v 1.41657 1.55 0.9
v 1.41657 1.55 1.2
v 0.0692893 1.55 0.9
v 0.0692893 1.55 1.2
v -0.06 1.42071 0.9
v -0.06 1.42071 1.2
v -0.06 0.0792893 0.9
v -0.06 0.0792893 1.2
v 0.0692893 -0.05 0.9
v 0.0692893 -0.05 1.2
v 1.4 1.36858 1.2
v 1.36858 1.4 1.2
v 0.131421 1.4 1.2
v 0.1 1.36858 1.2
v 0.1 0.131421 1.2
v 0.131421 0.1 1.2
v 1.36858 0.1 1.2
v 1.4 0.131421 1.2
v 0.131421 1.4 0.9
v 0.1 1.36858 0.9
v 1.36858 1.4 0.9
v 1.4 1.36858 0.9
v 1.4 0.131421 0.9
v 1.36858 0.1 0.9
v 0.131421 0.1 0.9
v 0.1 0.131421 0.9
vn 0.707107 -0.707107 -0
vn 1 -0 -0
vn 0.707107 0.707107 -0
vn -0 1 -0
vn -0.707107 0.707107 0
vn -1 0 0
vn -0.707107 -0.707107 0
vn -0 -1 -0
vn 0 0 1
vn -0 -0 -1
vn -1 0 0
vn -0.707107 0.707107 0
vn 0 1 0
vn 0.707107 0.707107 -0
vn 1 0 -0
vn 0.707107 -0.707107 0
vn 0 -1 0
vn -0.707107 -0.707107 0
vt 0.0943503 0
vt 0.0943503 -0.3
vt -0.0943503 -0.3
vt -0.0943503 0
vt 0 -0.661569
vt -0.3 -0.661569
vt -0.3 0.671569
vt 0 0.671569
vt 0.0943503 0
vt 0.0943503 -0.3
vt -0.0943503 -0.3
vt -0.0943503 0
vt 0 0.666569
vt 0.3 0.666569
vt 0.3 -0.680711
vt -0 -0.680711
vt -0.0843503 0
vt -0.0843503 -0.3
vt 0.0984924 -0.3
vt 0.0984924 0
vt 0 0.0157107
vt -0.3 0.0157107
vt -0.3 -1.32571
vt 0 -1.32571
vt 0.0984924 0
vt 0.0984924 -0.3
vt -0.0843503 -0.3
vt -0.0843503 0
vt 0 -0.675711
vt -0.3 -0.675711
vt -0.3 0.671569
vt 0 0.671569
vt 1.55 -1.71657
vt 1.55 -0.383431
vt 1.4 -0.431421
vt 1.41657 -0.25
vt 1.36858 -0.4
vt 0.0692893 -0.25
vt 0.131421 -0.4
vt -0.06 -0.379289
vt 0.1 -0.431421
vt -0.06 -1.72071
vt 0.1 -1.66858
vt 0.0692893 -1.85
vt 0.131421 -1.7
vt 1.41657 -1.85
vt 1.36858 -1.7
vt 1.4 -1.66858
vt 0.0692893 -0.25
vt 0.131421 -0.4
vt 0.1 -0.431421
vt 1.41657 -0.25
vt 1.36858 -0.4
vt 1.55 -0.383431
vt 1.4 -0.431421
vt 1.55 -1.71657
vt 1.4 -1.66858
vt 1.41657 -1.85
vt 1.36858 -1.7
vt 0.0692893 -1.85
vt 0.131421 -1.7
vt -0.06 -1.72071
vt 0.1 -1.66858
vt -0.06 -0.379289
vt 0 0.618579
vt -0.3 0.618579
vt -0.3 -0.618579
vt 0 -0.618579
vt -0.0222183 0
vt -0.0222183 -0.3
vt 0.0222183 -0.3
vt 0.0222183 0
vt 0 0.618579
vt -0.3 0.618579
vt -0.3 -0.618579
vt 0 -0.618579
vt -0.0222183 0
vt -0.0222183 -0.3
vt 0.0222183 -0.3
vt 0.0222183 0
vt -0 -0.618579
vt 0.3 -0.618579
vt 0.3 0.618579
vt 0 0.618579
vt -0.0222183 0
vt -0.0222183 -0.3
vt 0.0222183 -0.3
vt 0.0222183 0
vt -0 -0.618579
vt 0.3 -0.618579
vt 0.3 0.618579
vt 0 0.618579
vt -0.0222183 0
vt -0.0222183 -0.3
vt 0.0222183 -0.3
vt 0.0222183 0
f 41/121/23 42/122/23 43/123/23
f 43/123/23 44/124/23 41/121/23
f 44/125/24 43/126/24 45/127/24
f 45/127/24 46/128/24 44/125/24
f 46/129/25 45/130/25 47/131/25
f 47/131/25 48/132/25 46/129/25
f 48/133/26 47/134/26 49/135/26
f 49/135/26 50/136/26 48/133/26
f 50/137/27 49/138/27 51/139/27
f 51/139/27 52/140/27 50/137/27
f 52/141/28 51/142/28 53/143/28
f 53/143/28 54/144/28 52/141/28
f 54/145/29 53/146/29 55/147/29
f 55/147/29 56/148/29 54/145/29
f 56/149/30 55/150/30 42/151/30
f 42/151/30 41/152/30 56/149/30
f 44/153/31 46/154/31 57/155/31
f 46/154/31 48/156/31 58/157/31
f 48/156/31 50/158/31 59/159/31
f 50/158/31 52/160/31 60/161/31
f 54/162/31 61/163/31 60/161/31
f 56/164/31 62/165/31 61/163/31
f 41/166/31 63/167/31 62/165/31
f 41/166/31 44/153/31 64/168/31
f 58/157/31 57/155/31 46/154/31
f 60/161/31 59/159/31 50/158/31
f 61/163/31 54/162/31 56/164/31
f 64/168/31 63/167/31 41/166/31
f 59/159/31 58/157/31 48/156/31
f 62/165/31 56/164/31 41/166/31
f 60/161/31 52/160/31 54/162/31
f 57/155/31 64/168/31 44/153/31
f 49/169/32 65/170/32 66/171/32
f 47/172/32 67/173/32 65/170/32
f 45/174/32 68/175/32 67/173/32
f 43/176/32 69/177/32 68/175/32
f 42/178/32 70/179/32 69/177/32
f 42/178/32 55/180/32 71/181/32
f 55/180/32 53/182/32 72/183/32
f 53/182/32 51/184/32 66/171/32
f 65/170/32 49/169/32 47/172/32
f 68/175/32 45/174/32 43/176/32
f 71/181/32 70/179/32 42/178/32
f 66/171/32 72/183/32 53/182/32
f 67/173/32 47/172/32 45/174/32
f 72/183/32 71/181/32 55/180/32
f 69/177/32 43/176/32 42/178/32
f 66/171/32 51/184/32 49/169/32
f 57/185/33 68/186/33 69/187/33
f 69/187/33 64/188/33 57/185/33
f 64/189/34 69/190/34 70/191/34
f 70/191/34 63/192/34 64/189/34
f 63/193/35 70/194/35 71/195/35
f 71/195/35 62/196/35 63/193/35
f 62/197/36 71/198/36 72/199/36
f 72/199/36 61/200/36 62/197/36
f 61/201/37 72/202/37 66/203/37
f 66/203/37 60/204/37 61/201/37
f 60/205/38 66/206/38 65/207/38
f 65/207/38 59/208/38 60/205/38
f 59/209/39 65/210/39 67/211/39
f 67/211/39 58/212/39 59/209/39
f 58/213/40 67/214/40 68/215/40
f 68/215/40 57/216/40 58/213/40
